<svg width="184" height="184" viewBox="0 0 184 184" fill="none" xmlns="http://www.w3.org/2000/svg">
<g filter="url(#filter0_b_5938_30181)">
<mask id="path-1-inside-1_5938_30181" fill="white">
<path d="M0 24C0 10.7452 10.7452 0 24 0H160C173.255 0 184 10.7452 184 24V160C184 173.255 173.255 184 160 184H24C10.7452 184 0 173.255 0 160V24Z"/>
</mask>
<path d="M0 24C0 10.7452 10.7452 0 24 0H160C173.255 0 184 10.7452 184 24V160C184 173.255 173.255 184 160 184H24C10.7452 184 0 173.255 0 160V24Z" fill="url(#paint0_linear_5938_30181)" fill-opacity="0.05"/>
<path d="M24 1H160V-1H24V1ZM183 24V160H185V24H183ZM160 183H24V185H160V183ZM1 160V24H-1V160H1ZM24 183C11.2975 183 1 172.703 1 160H-1C-1 173.807 10.1929 185 24 185V183ZM183 160C183 172.703 172.703 183 160 183V185C173.807 185 185 173.807 185 160H183ZM160 1C172.703 1 183 11.2975 183 24H185C185 10.1929 173.807 -1 160 -1V1ZM24 -1C10.1929 -1 -1 10.1929 -1 24H1C1 11.2975 11.2975 1 24 1V-1Z" fill="url(#paint1_linear_5938_30181)" mask="url(#path-1-inside-1_5938_30181)"/>
<path d="M91.5 138C116.629 138 137 117.629 137 92.5C137 67.3711 116.629 47 91.5 47C66.3711 47 46 67.3711 46 92.5C46 117.629 66.3711 138 91.5 138Z" fill="black"/>
<path d="M111.396 63.8356C106.774 63.9977 102.737 66.5456 99.7365 70.0693C96.4089 73.9334 94.1982 78.5187 92.6033 83.1965C89.7522 80.8592 87.5528 77.8347 82.9787 76.5154C79.4405 75.4991 75.7288 75.9173 72.3137 78.462C70.6945 79.6712 69.581 81.4978 69.051 83.2143C67.6764 87.678 70.4919 91.6507 71.7723 93.0787L74.5683 96.0708C75.1453 96.6591 76.5311 98.1924 75.8552 100.389C75.121 102.779 72.2424 104.324 69.2876 103.415C67.9682 103.006 66.0718 102.026 66.4981 100.645C66.6731 100.077 67.0784 99.6511 67.2972 99.1665C67.4965 98.7451 67.5906 98.4307 67.6505 98.2459C68.1903 96.4825 67.4528 94.1906 65.5662 93.6087C63.8043 93.0705 62.0051 93.4985 61.3066 95.7628C60.5124 98.3415 61.7459 103.011 68.3475 105.049C76.0821 107.426 82.6254 103.212 83.5525 97.7208C84.1376 94.2813 82.5816 91.7236 79.7371 88.435L77.4193 85.8724C76.0141 84.4672 75.5327 82.0765 76.9849 80.2401C78.2119 78.6889 79.9575 78.0276 82.8215 78.804C86.9984 79.9354 88.8608 82.835 91.9663 85.1739C90.6842 89.3799 89.8446 93.6022 89.0876 97.3917L88.6225 100.212C86.4003 111.859 84.7065 118.253 80.3011 121.924C79.4145 122.558 78.1438 123.502 76.2329 123.568C75.2296 123.601 74.907 122.91 74.8908 122.608C74.8681 121.905 75.4629 121.582 75.8568 121.266C76.4452 120.944 77.335 120.412 77.2751 118.709C77.2086 116.689 75.5391 114.942 73.1274 115.025C71.3169 115.085 68.5631 116.785 68.6668 119.904C68.7738 123.119 71.7723 125.533 76.2944 125.377C78.7127 125.298 84.1101 124.313 89.428 117.991C95.618 110.741 97.3506 102.431 98.6539 96.3495L100.106 88.3215C100.915 88.4172 101.777 88.4836 102.717 88.5047C110.428 88.67 114.283 84.6747 114.343 81.7701C114.38 80.0115 113.189 78.2821 111.52 78.321C110.327 78.355 108.826 79.1492 108.467 80.7992C108.115 82.4201 110.921 83.882 108.727 85.3036C107.17 86.3134 104.377 87.0232 100.445 86.4462L101.161 82.493C102.618 74.9983 104.421 65.779 111.249 65.5569C111.747 65.531 113.569 65.5796 113.611 66.7823C113.622 67.1843 113.523 67.288 113.053 68.2086C112.572 68.925 112.392 69.5361 112.413 70.2395C112.481 72.1521 113.935 73.4099 116.041 73.3353C118.856 73.2429 119.666 70.5021 119.621 69.092C119.504 65.7774 116.013 63.6865 111.396 63.8356Z" fill="white"/>
</g>
<defs>
<filter id="filter0_b_5938_30181" x="-10" y="-10" width="204" height="204" filterUnits="userSpaceOnUse" color-interpolation-filters="sRGB">
<feFlood flood-opacity="0" result="BackgroundImageFix"/>
<feGaussianBlur in="BackgroundImageFix" stdDeviation="5"/>
<feComposite in2="SourceAlpha" operator="in" result="effect1_backgroundBlur_5938_30181"/>
<feBlend mode="normal" in="SourceGraphic" in2="effect1_backgroundBlur_5938_30181" result="shape"/>
</filter>
<linearGradient id="paint0_linear_5938_30181" x1="0" y1="0" x2="213.38" y2="45.1513" gradientUnits="userSpaceOnUse">
<stop stop-color="white"/>
<stop offset="0.115722" stop-color="white" stop-opacity="0.617411"/>
<stop offset="1" stop-color="#060D1D" stop-opacity="0"/>
</linearGradient>
<linearGradient id="paint1_linear_5938_30181" x1="0" y1="0" x2="183.154" y2="12.4446" gradientUnits="userSpaceOnUse">
<stop stop-color="white" stop-opacity="0.05"/>
<stop offset="0.324509" stop-color="white" stop-opacity="0.349817"/>
<stop offset="0.53676" stop-color="#488ECA"/>
<stop offset="0.795" stop-color="white" stop-opacity="0.2"/>
<stop offset="1" stop-color="white" stop-opacity="0.05"/>
</linearGradient>
</defs>
</svg>
