<svg width="184" height="184" viewBox="0 0 184 184" fill="none" xmlns="http://www.w3.org/2000/svg">
<g filter="url(#filter0_b_5938_30205)">
<mask id="path-1-inside-1_5938_30205" fill="white">
<path d="M0 24C0 10.7452 10.7452 0 24 0H160C173.255 0 184 10.7452 184 24V160C184 173.255 173.255 184 160 184H24C10.7452 184 0 173.255 0 160V24Z"/>
</mask>
<path d="M0 24C0 10.7452 10.7452 0 24 0H160C173.255 0 184 10.7452 184 24V160C184 173.255 173.255 184 160 184H24C10.7452 184 0 173.255 0 160V24Z" fill="url(#paint0_linear_5938_30205)" fill-opacity="0.05"/>
<path d="M24 1H160V-1H24V1ZM183 24V160H185V24H183ZM160 183H24V185H160V183ZM1 160V24H-1V160H1ZM24 183C11.2975 183 1 172.703 1 160H-1C-1 173.807 10.1929 185 24 185V183ZM183 160C183 172.703 172.703 183 160 183V185C173.807 185 185 173.807 185 160H183ZM160 1C172.703 1 183 11.2975 183 24H185C185 10.1929 173.807 -1 160 -1V1ZM24 -1C10.1929 -1 -1 10.1929 -1 24H1C1 11.2975 11.2975 1 24 1V-1Z" fill="url(#paint1_linear_5938_30205)" mask="url(#path-1-inside-1_5938_30205)"/>
<path fill-rule="evenodd" clip-rule="evenodd" d="M100.526 44C99.8318 44 99.1873 44.1478 98.5922 44.3448C99.8566 45.1823 100.551 46.2906 100.898 47.5468C100.923 47.7192 100.972 47.8424 100.997 48.0148C101.022 48.1626 101.047 48.3103 101.047 48.4581C101.146 50.6256 100.476 50.8965 100.005 52.1773C99.2864 53.8276 99.4847 55.601 100.352 57.0295C100.427 57.2019 100.526 57.399 100.65 57.5714C99.7078 51.3398 104.939 50.4039 105.906 48.4581C105.98 46.7586 104.567 45.6256 103.451 44.8374C102.385 44.197 101.419 44 100.526 44ZM108.41 45.4039C108.311 45.9704 108.385 45.8227 108.36 46.1182C108.336 46.3153 108.336 46.5616 108.311 46.7586C108.262 46.9557 108.211 47.1527 108.137 47.3497C108.088 47.5468 108.013 47.7438 107.939 47.9409C107.839 48.1379 107.765 48.3103 107.666 48.5073C107.592 48.6059 107.542 48.7044 107.468 48.803C107.419 48.8769 107.369 48.9508 107.319 49.0246C107.195 49.197 107.071 49.3694 106.947 49.5172C106.798 49.665 106.675 49.8374 106.501 49.9606V49.9853C106.352 50.1084 106.203 50.2562 106.03 50.3793C105.509 50.7734 104.914 51.069 104.369 51.4384C104.195 51.5615 104.022 51.6601 103.873 51.8079C103.699 51.9311 103.551 52.0542 103.402 52.202C103.228 52.3497 103.104 52.4975 102.956 52.67C102.832 52.8178 102.683 52.9902 102.584 53.1626C102.46 53.335 102.336 53.5074 102.237 53.6798C102.138 53.8769 102.063 54.0493 101.964 54.2463C101.89 54.4433 101.815 54.6158 101.766 54.8128C101.691 55.0345 101.642 55.2315 101.592 55.4285C101.567 55.5271 101.567 55.6503 101.543 55.7488C101.518 55.8474 101.518 55.9458 101.493 56.0443C101.493 56.2413 101.468 56.463 101.468 56.6601C101.468 56.8079 101.468 56.9556 101.493 57.1034C101.493 57.3004 101.518 57.4975 101.567 57.7192C101.592 57.9162 101.642 58.1132 101.691 58.3103C101.766 58.5074 101.815 58.7044 101.89 58.9014C101.939 59.0246 102.014 59.1477 102.063 59.2463L96.3611 57.0542C95.3942 56.7832 94.452 56.537 93.4852 56.3152C92.9645 56.1921 92.4439 56.0689 91.9233 55.9458C90.4357 55.6503 88.9234 55.4285 87.4111 55.2808C87.3616 55.2808 87.3367 55.2561 87.2871 55.2561C85.7996 55.1083 84.3369 55.0344 82.8494 55.0344C81.7585 55.0344 80.6676 55.0836 79.6015 55.1576C78.0892 55.2561 76.5769 55.4532 75.0646 55.6995C74.6927 55.7487 74.3208 55.8226 73.949 55.8965C73.1804 56.0443 72.4366 56.2167 71.7177 56.3891C71.3457 56.4877 70.9739 56.5862 70.602 56.6847C70.2301 56.8325 69.883 57.0049 69.5359 57.1526C69.2632 57.2758 68.9905 57.399 68.7178 57.5222C68.6682 57.5468 68.6185 57.5468 68.5938 57.5714C68.3459 57.6945 68.1227 57.793 67.8997 57.9161C67.8253 57.9408 67.7756 57.9654 67.7261 57.99C67.4534 58.1132 67.1807 58.261 66.9575 58.3842C66.784 58.458 66.6104 58.5566 66.4617 58.6305C66.3873 58.6797 66.2881 58.729 66.2386 58.7536C66.0155 58.8767 65.7923 58.9999 65.594 59.1231C65.3708 59.2462 65.1725 59.3694 64.9989 59.4925C64.8254 59.6157 64.6518 59.7142 64.5031 59.8373C64.4783 59.862 64.4535 59.862 64.4287 59.8866C64.28 59.9851 64.1065 60.1083 63.9577 60.2314C63.9577 60.2314 63.9328 60.2561 63.9081 60.2806C63.7842 60.3792 63.6602 60.4776 63.5362 60.5762C63.4867 60.6008 63.4371 60.6501 63.3875 60.6747C63.2636 60.7733 63.1395 60.8964 63.0156 60.995C62.9908 61.0442 62.9413 61.0689 62.9164 61.0935C62.7677 61.2413 62.6189 61.3644 62.4702 61.5122C62.4453 61.5122 62.4453 61.5369 62.4206 61.5614C62.2719 61.6846 62.1231 61.8324 61.9743 61.9802C61.9495 62.0049 61.9495 62.0294 61.9248 62.0294C61.8008 62.1525 61.6769 62.2757 61.5529 62.4234C61.5034 62.4727 61.429 62.522 61.3794 62.5713C61.2554 62.7191 61.1067 62.8668 60.9579 63.0146C60.9331 63.0638 60.8835 63.0885 60.8587 63.1377C60.6603 63.3348 60.4868 63.5318 60.2885 63.7289C60.2636 63.7536 60.2389 63.7781 60.2141 63.8028C59.8174 64.2215 59.396 64.6402 58.9497 65.0096C58.5034 65.4038 58.0324 65.7732 57.5613 66.0934C57.0655 66.4383 56.5944 66.7338 56.0738 67.0293C55.578 67.3003 55.0573 67.5466 54.5119 67.7683C53.9912 67.9899 53.4459 68.187 52.9004 68.3594C51.8591 68.5811 50.7931 68.9998 49.8758 69.0737C49.6774 69.0737 49.4543 69.1229 49.2559 69.1476C49.0328 69.1968 48.8345 69.2461 48.6362 69.2954C48.4378 69.3693 48.2395 69.4432 48.0411 69.517C47.8428 69.5909 47.6445 69.6894 47.4461 69.788C47.2725 69.9111 47.0743 70.0096 46.9007 70.1328C46.7271 70.256 46.5536 70.4037 46.4048 70.5515C46.2313 70.6747 46.0577 70.847 45.909 70.9948C45.7603 71.1673 45.6115 71.3151 45.4875 71.4875C45.3636 71.6845 45.2148 71.8569 45.1156 72.054C44.9917 72.2264 44.8677 72.4234 44.7686 72.6204C44.6693 72.8421 44.5702 73.0392 44.4958 73.2609C44.4215 73.4579 44.3471 73.6795 44.2727 73.9012C44.2232 74.0983 44.1735 74.2953 44.1487 74.4923C44.1487 74.5171 44.124 74.5416 44.124 74.5662C44.0744 74.7879 44.0744 75.0835 44.0496 75.2313C44.0247 75.4037 44 75.5515 44 75.7239C44 75.8224 44 75.9456 44.0248 76.0441C44.0497 76.2165 44.0744 76.3643 44.124 76.5121C44.1736 76.6598 44.2233 76.8077 44.2976 76.9555V76.9801C44.3719 77.1279 44.4711 77.2757 44.5703 77.4234C44.6695 77.5712 44.7686 77.719 44.8926 77.8668C45.0165 77.99 45.1653 78.1377 45.3141 78.2609C45.4628 78.4087 45.6116 78.5318 45.7851 78.6549C46.3801 79.1722 46.5289 79.3446 47.2975 79.7387C47.4214 79.8126 47.5454 79.8619 47.6941 79.9358C47.7189 79.9358 47.7437 79.9604 47.7685 79.9604C47.7685 80.0097 47.7685 80.0343 47.7933 80.0836C47.8181 80.2806 47.8677 80.4776 47.9173 80.6747C47.9669 80.8964 48.0413 81.0935 48.1157 81.2658C48.19 81.4136 48.2396 81.5614 48.3139 81.7092C48.3388 81.7584 48.3635 81.8077 48.3883 81.8323C48.4876 82.0294 48.5867 82.2018 48.6859 82.3742C48.8098 82.5466 48.9338 82.719 49.0577 82.8915C49.1817 83.0392 49.3304 83.2116 49.4792 83.3594C49.6279 83.5072 49.7767 83.6303 49.9502 83.7782C49.9502 83.7782 49.9751 83.8028 49.9998 83.8028C50.1485 83.926 50.2973 84.0492 50.4461 84.1477C50.6196 84.2708 50.7931 84.3693 50.9915 84.4679C51.1651 84.5664 51.3634 84.6649 51.5617 84.7388C51.7104 84.8127 51.884 84.8619 52.0575 84.9112C52.0824 84.9359 52.1071 84.9359 52.1568 84.9605C52.2559 84.9851 52.3799 85.0097 52.4791 85.0343C52.4047 86.3643 52.3798 87.6205 52.5783 88.0639C52.8014 88.5565 53.8923 87.054 54.9831 85.3299C54.8343 87.0294 54.7352 89.0244 54.9831 89.6156C55.2558 90.2313 56.7433 88.3101 58.0325 86.1919C75.6102 82.1526 91.6507 94.2215 93.3366 111.266C93.0143 108.606 89.717 107.128 88.2046 107.497C87.4609 109.32 86.1965 111.66 84.1635 113.113C84.3371 111.488 84.2628 109.813 83.9156 108.187C83.3702 110.453 82.3041 112.571 80.8413 114.393C78.4861 114.566 76.1308 113.433 74.8912 111.734C74.792 111.66 74.7673 111.512 74.6929 111.413C74.6185 111.241 74.5442 111.069 74.4945 110.896C74.4202 110.724 74.3706 110.551 74.3458 110.379C74.321 110.207 74.321 110.034 74.321 109.837C74.321 109.714 74.321 109.591 74.321 109.468C74.3458 109.295 74.3954 109.123 74.4449 108.95C74.4945 108.778 74.5442 108.606 74.6185 108.433C74.7177 108.261 74.792 108.088 74.916 107.916C75.3374 106.734 75.3374 105.773 74.5689 105.207C74.4201 105.108 74.2714 105.034 74.0978 104.96C73.9986 104.936 73.8747 104.886 73.7755 104.862C73.7012 104.837 73.6516 104.813 73.5772 104.788C73.4037 104.739 73.2301 104.689 73.0566 104.665C72.883 104.616 72.7095 104.591 72.5359 104.591C72.3624 104.566 72.1641 104.542 71.9905 104.542C71.8665 104.542 71.7426 104.566 71.6186 104.566C71.4203 104.566 71.2468 104.591 71.0732 104.64C70.8996 104.665 70.7261 104.689 70.5525 104.739C70.379 104.788 70.2054 104.837 70.0319 104.911C69.8584 104.985 69.7096 105.059 69.536 105.133C69.3873 105.207 69.2386 105.305 69.065 105.379C63.2884 109.123 66.7345 117.891 70.6765 120.428C69.189 120.699 67.6767 121.019 67.2552 121.34C67.2304 121.364 67.2056 121.389 67.2056 121.389C68.2717 122.029 69.3874 122.571 70.5526 123.039C72.1393 123.556 73.8251 124.024 74.5689 124.222V124.246C76.6267 124.665 78.7092 124.813 80.8166 124.69C91.7995 123.926 100.799 115.625 102.435 104.689C102.485 104.911 102.535 105.108 102.584 105.33C102.659 105.773 102.758 106.241 102.807 106.709V106.734C102.857 106.956 102.882 107.177 102.906 107.374V107.473C102.931 107.694 102.956 107.916 102.956 108.113C102.981 108.384 103.006 108.655 103.006 108.926V109.32C103.006 109.443 103.03 109.591 103.03 109.714C103.03 109.862 103.006 110.01 103.006 110.158V110.502C103.006 110.675 102.981 110.823 102.981 110.995C102.981 111.094 102.981 111.192 102.956 111.315C102.956 111.488 102.931 111.66 102.931 111.857C102.906 111.931 102.906 112.005 102.906 112.079C102.881 112.275 102.857 112.448 102.832 112.645C102.832 112.719 102.832 112.793 102.807 112.867C102.782 113.113 102.733 113.335 102.708 113.581V113.606V113.63C102.658 113.852 102.609 114.099 102.559 114.32V114.394C102.509 114.616 102.46 114.838 102.41 115.059C102.41 115.084 102.385 115.133 102.385 115.157C102.336 115.379 102.286 115.601 102.212 115.823V115.896C102.137 116.143 102.063 116.364 102.014 116.587C101.989 116.611 101.989 116.635 101.989 116.635C101.914 116.881 101.84 117.128 101.766 117.374C101.666 117.62 101.592 117.843 101.493 118.089C101.394 118.335 101.319 118.582 101.22 118.803C101.121 119.049 101.022 119.271 100.923 119.517H100.898C100.799 119.739 100.699 119.985 100.576 120.207C100.551 120.281 100.526 120.33 100.501 120.379C100.476 120.404 100.476 120.429 100.452 120.453C98.8401 123.68 96.46 126.512 93.485 128.729C93.2866 128.852 93.0883 129 92.89 129.148C92.8404 129.197 92.766 129.221 92.7164 129.271C92.5428 129.394 92.3693 129.517 92.171 129.64L92.2454 129.788H92.2702C92.6172 129.739 92.9644 129.69 93.3115 129.64H93.3363C93.9809 129.542 94.6255 129.419 95.2701 129.296C95.4436 129.271 95.642 129.221 95.8155 129.172C95.9395 129.148 96.0387 129.123 96.1626 129.098C96.3361 129.074 96.5097 129.025 96.6833 129C96.832 128.951 96.9807 128.926 97.1295 128.877C99.6087 128.286 102.014 127.473 104.319 126.512C100.377 131.857 95.0965 136.168 88.9233 139C91.7744 138.803 94.6255 138.335 97.3774 137.547C107.369 134.615 115.774 127.941 120.806 118.951C119.789 124.64 117.509 130.059 114.137 134.788C116.542 133.212 118.748 131.389 120.756 129.32C126.31 123.557 129.954 116.241 131.194 108.384C132.037 112.276 132.285 116.29 131.913 120.256C149.813 95.4532 133.4 69.739 126.533 62.9657C126.508 62.9164 126.483 62.8918 126.483 62.8425C126.459 62.8671 126.459 62.8671 126.459 62.8918C126.459 62.8671 126.459 62.8671 126.434 62.8425C126.434 63.1381 126.409 63.4336 126.384 63.7292C126.31 64.2957 126.235 64.8376 126.137 65.3794C126.012 65.9213 125.863 66.4631 125.715 67.0051C125.542 67.5223 125.343 68.0641 125.12 68.5814C124.896 69.074 124.649 69.5913 124.376 70.0838C124.104 70.5519 123.806 71.0444 123.484 71.4878C123.161 71.9558 122.814 72.3991 122.467 72.8178C122.095 73.2612 121.699 73.6553 121.302 74.0493C121.054 74.271 120.83 74.4681 120.583 74.6651C120.384 74.8375 120.211 74.9853 120.012 75.1577C119.566 75.5026 119.12 75.8227 118.625 76.1183C118.153 76.4139 117.658 76.7094 117.161 76.9557C116.641 77.2021 116.12 77.4237 115.6 77.6454C115.079 77.8424 114.533 78.0149 113.988 78.1627C113.443 78.3104 112.872 78.4336 112.327 78.5321C111.757 78.6306 111.187 78.6798 110.641 78.7291C110.244 78.7538 109.848 78.7784 109.451 78.7784C108.881 78.7784 108.311 78.7291 107.765 78.6798C107.195 78.6306 106.625 78.5566 106.079 78.4335C105.509 78.3349 104.964 78.1872 104.418 78.0148H104.394C104.939 77.9656 105.484 77.9162 106.03 77.8178C106.6 77.7192 107.146 77.596 107.691 77.4482C108.236 77.3005 108.782 77.1281 109.303 76.9311C109.848 76.734 110.369 76.4877 110.864 76.2414C111.385 75.9951 111.856 75.7241 112.352 75.4286C112.823 75.1084 113.294 74.7882 113.74 74.4433C114.187 74.0986 114.608 73.7291 115.005 73.335C115.426 72.9655 115.798 72.5468 116.17 72.1281C116.542 71.6847 116.889 71.2414 117.211 70.798C117.261 70.7241 117.31 70.6256 117.36 70.5518C117.608 70.1577 117.856 69.7636 118.079 69.3695C118.351 68.8769 118.599 68.3843 118.822 67.867C119.046 67.3498 119.244 66.8325 119.417 66.2907C119.591 65.7734 119.715 65.2315 119.839 64.6897C119.938 64.1232 120.037 63.5814 120.087 63.0395C120.137 62.4729 120.186 61.9065 120.186 61.3646C120.186 60.9705 120.161 60.5764 120.137 60.1823C120.087 59.6158 120.012 59.074 119.938 58.5321C119.839 57.9656 119.715 57.4237 119.566 56.8819C119.393 56.3646 119.22 55.8227 119.021 55.3055C118.823 54.7882 118.574 54.2711 118.327 53.7784C118.054 53.2858 117.781 52.7932 117.484 52.3253C117.161 51.8572 116.839 51.4139 116.492 50.9705C116.12 50.5518 115.748 50.1331 115.351 49.7144C115.154 49.5174 114.93 49.2957 114.707 49.0986C113.592 48.2365 112.426 47.4238 111.261 46.6849C111.087 46.5863 110.939 46.5124 110.765 46.4385C109.947 45.9213 109.178 45.6502 108.41 45.4039Z" fill="#E0234E"/>
</g>
<defs>
<filter id="filter0_b_5938_30205" x="-10" y="-10" width="204" height="204" filterUnits="userSpaceOnUse" color-interpolation-filters="sRGB">
<feFlood flood-opacity="0" result="BackgroundImageFix"/>
<feGaussianBlur in="BackgroundImageFix" stdDeviation="5"/>
<feComposite in2="SourceAlpha" operator="in" result="effect1_backgroundBlur_5938_30205"/>
<feBlend mode="normal" in="SourceGraphic" in2="effect1_backgroundBlur_5938_30205" result="shape"/>
</filter>
<linearGradient id="paint0_linear_5938_30205" x1="0" y1="0" x2="213.38" y2="45.1513" gradientUnits="userSpaceOnUse">
<stop stop-color="white"/>
<stop offset="0.115722" stop-color="white" stop-opacity="0.617411"/>
<stop offset="1" stop-color="#060D1D" stop-opacity="0"/>
</linearGradient>
<linearGradient id="paint1_linear_5938_30205" x1="0" y1="0" x2="183.154" y2="12.4446" gradientUnits="userSpaceOnUse">
<stop stop-color="white" stop-opacity="0.05"/>
<stop offset="0.324509" stop-color="white" stop-opacity="0.349817"/>
<stop offset="0.53676" stop-color="#488ECA"/>
<stop offset="0.795" stop-color="white" stop-opacity="0.2"/>
<stop offset="1" stop-color="white" stop-opacity="0.05"/>
</linearGradient>
</defs>
</svg>
